#!OML:ASF H:\Male1\Project 1\Capture day 1\Session 1\Male1.ASF
:FULLY-SPECIFIED
:DEGREES
458
root 22.1694 15.3707 0.479534 144.987 -86.1778 -146.846
lowerback 10.8725 1.08652 -0.294996
upperback 8.71375 0.967545 -0.604156
thorax 3.01017 0.295578 -0.549229
lowerneck -8.88369 5.29074 9.90449
upperneck 0.791289 6.29002 -8.39468
head 2.25332 2.93975 -3.82664
rclavicle 4.57205e-015 0
rhumerus -8.89106 40.2353 -94.9083
rradius 132.162
rwrist -1.3021
rhand -13.6689 25.0016
rfingers 7.12502
rthumb 12.4483 -4.60772
lclavicle 4.57205e-015 0
lhumerus -3.0032 -26.0701 91.1123
lradius 142.269
lwrist 4.68346
lhand 5.59276 -19.3862
lfingers 7.12502
lthumb 30.9352 8.0276
rfemur -6.97467 9.18181 21.4214
rtibia 26.0461
rfoot -23.9392 -30.0357
rtoes -20.2634
lfemur -7.76839 -10.1928 -13.2358
ltibia 28.6744
lfoot -19.2773 20.1799
ltoes -13.8091
459
root 22.1721 15.379 0.495447 144.678 -86.1892 -146.413
lowerback 10.7618 1.09848 -0.361242
upperback 8.68179 0.984684 -0.723797
thorax 3.03745 0.306195 -0.63631
lowerneck -9.01117 5.43491 10.0757
upperneck 0.883597 6.46206 -8.49943
head 2.32615 3.02075 -3.87125
rclavicle -1.03368e-014 1.39149e-014
rhumerus -8.67608 40.0851 -95.255
rradius 132.12
rwrist -1.54208
rhand -13.6845 25.2434
rfingers 7.12502
rthumb 12.4333 -4.36682
lclavicle -1.03368e-014 1.39149e-014
lhumerus -2.47617 -26.5657 91.0264
lradius 142.41
lwrist 4.1892
lhand 3.81669 -19.074
lfingers 7.12502
lthumb 29.2407 8.64813
rfemur -6.98931 9.22637 21.3606
rtibia 25.8459
rfoot -23.9461 -30.057
rtoes -20.4995
lfemur -7.89263 -10.3131 -13.2713
ltibia 28.6466
lfoot -19.278 20.2343
ltoes -13.6589
460
root 22.1767 15.3858 0.511449 143.347 -86.1111 -144.931
lowerback 10.8546 1.10603 -0.314816
upperback 8.53201 1.00695 -0.826589
thorax 2.83122 0.326411 -0.772292
lowerneck -9.03832 5.49699 10.2467
upperneck 1.02965 6.53281 -8.50817
head 2.38623 3.05727 -3.8943
rclavicle -4.77083e-015 9.54166e-015
rhumerus -8.70871 39.9662 -95.7225
rradius 132.182
rwrist -1.66749
rhand -13.6952 25.2852
rfingers 7.12502
rthumb 12.423 -4.32558
lclavicle -4.77083e-015 9.54166e-015
lhumerus -2.07877 -26.9064 90.9237
lradius 142.307
lwrist 3.8899
lhand 2.06449 -18.8433
lfingers 7.12502
lthumb 27.5663 9.15805
rfemur -7.0708 9.33515 21.4103
rtibia 25.6719
rfoot -24.0413 -30.1128
rtoes -20.7781
lfemur -8.08742 -10.3321 -13.1697
ltibia 28.6816
lfoot -19.291 20.276
ltoes -13.5587
461
root 22.1829 15.3889 0.527252 142.044 -86.0395 -143.49
lowerback 10.7449 1.142 -0.376556
upperback 8.55857 1.05092 -0.829514
thorax 2.91824 0.345582 -0.742698
lowerneck -8.97043 5.40797 10.1888
upperneck 0.962136 6.41892 -8.4183
head 2.33938 3.00425 -3.86722
rclavicle -1.0138e-014 2.38542e-015
rhumerus -8.37146 40.0051 -95.7568
rradius 132.306
rwrist -1.61484
rhand -13.6994 25.0845
rfingers 7.12502
rthumb 12.419 -4.52654
lclavicle -1.0138e-014 2.38542e-015
lhumerus -1.10044 -26.922 90.5635
lradius 142.193
lwrist 4.70479
lhand 0.947416 -18.9106
lfingers 7.12502
lthumb 26.4975 9.25664
rfemur -7.18807 9.26378 21.4403
rtibia 25.5379
rfoot -23.9251 -30.1426
rtoes -20.9996
lfemur -8.32655 -10.325 -13.0737
ltibia 28.8155
lfoot -19.4279 20.2706
ltoes -13.1431
462
root 22.1898 15.3876 0.542565 141.85 -85.9971 -143.216
lowerback 10.7906 1.133 -0.521236
upperback 8.57923 1.02469 -0.828978
thorax 2.91215 0.324476 -0.659579
lowerneck -9.02806 5.4735 9.98077
upperneck 0.838454 6.50802 -8.22231
head 2.30554 3.05064 -3.76852
rclavicle 9.93923e-016 -3.18055e-015
rhumerus -8.01291 40.2436 -95.7239
rradius 132.43
rwrist -1.5214
rhand -13.791 24.8245
rfingers 7.12502
rthumb 12.3307 -4.79194
lclavicle 9.93923e-016 -3.18055e-015
lhumerus 0.0871059 -26.9662 89.9293
lradius 141.818
lwrist 4.54106
lhand 0.9577 -20.246
lfingers 7.12502
lthumb 26.5074 7.9197
rfemur -7.30829 9.04936 21.3772
rtibia 25.4871
rfoot -23.5719 -30.109
rtoes -21.4403
lfemur -8.5671 -10.2877 -13.0723
ltibia 29.06
lfoot -19.5994 20.2145
ltoes -12.684
463
root 22.1967 15.384 0.556164 140.897 -85.7714 -142.234
lowerback 10.6558 1.08389 -0.687143
upperback 8.74749 0.936988 -0.662204
thorax 3.15724 0.262571 -0.384717
lowerneck -9.08921 5.55766 9.70654
upperneck 0.686682 6.63801 -8.26471
head 2.27466 3.1098 -3.72994
rclavicle -5.96354e-016 -2.38542e-014
rhumerus -7.37817 40.8363 -95.3341
rradius 132.513
rwrist -1.60214
rhand -14.0277 24.6665
rfingers 7.12502
rthumb 12.1024 -4.96349
lclavicle -5.96354e-016 -2.38542e-014
lhumerus 0.508012 -27.2866 89.8211
lradius 141.861
lwrist 3.59233
lhand -0.0586669 -18.4204
lfingers 7.12502
lthumb 25.5342 9.88846
rfemur -7.46144 8.85518 21.5038
rtibia 25.5967
rfoot -23.2051 -29.9891
rtoes -22.0393
lfemur -8.79751 -10.0165 -12.8798
ltibia 29.3919
lfoot -19.6404 20.1227
ltoes -12.8978
464
root 22.2048 15.3773 0.569982 140.624 -85.6058 -141.987
lowerback 10.8312 1.02247 -0.742147
upperback 8.76022 0.843902 -0.651729
thorax 3.07429 0.210887 -0.337787
lowerneck -8.94154 5.5987 9.73818
upperneck 0.504942 6.69974 -8.40984
head 2.20932 3.13898 -3.78093
rclavicle 2.18663e-015 2.14687e-014
rhumerus -7.07064 41.3359 -95.3318
rradius 132.549
rwrist -1.67769
rhand -14.1901 24.7056
rfingers 7.12502
rthumb 11.9458 -4.93353
lclavicle 2.18663e-015 2.14687e-014
lhumerus 1.15111 -27.2514 89.319
lradius 141.695
lwrist 3.75749
lhand 0.390258 -21.4633
lfingers 7.12502
lthumb 25.9641 6.7832
rfemur -7.63686 8.45835 21.5366
rtibia 25.8571
rfoot -22.947 -29.6418
rtoes -22.6521
lfemur -9.00542 -9.7059 -12.7828
ltibia 29.7705
lfoot -19.61 20.0647
ltoes -13.605
465
root 22.2162 15.3652 0.585277 141.183 -85.6405 -142.609
lowerback 11.081 1.01417 -0.759898
upperback 8.8046 0.820862 -0.796133
thorax 2.98824 0.199011 -0.478619
lowerneck -8.98129 5.59598 9.98098
upperneck 0.466177 6.66735 -8.49736
head 2.21246 3.12018 -3.84792
rclavicle -2.98177e-015 1.59028e-014
rhumerus -6.66562 41.4371 -95.3147
rradius 132.553
rwrist -1.65041
rhand -14.217 24.8271
rfingers 7.12502
rthumb 11.9198 -4.81359
lclavicle -2.98177e-015 1.59028e-014
lhumerus 1.73822 -27.6656 88.7173
lradius 141.639
lwrist 3.77757
lhand 0.363748 -21.6669
lfingers 7.12502
lthumb 25.9387 6.58329
rfemur -7.82966 7.91155 21.3548
rtibia 26.1918
rfoot -22.6964 -29.228
rtoes -23.2236
lfemur -9.20881 -9.52052 -12.8931
ltibia 30.1553
lfoot -19.6231 19.9564
ltoes -13.8652
466
root 22.2292 15.3524 0.597461 141.933 -85.5884 -143.454
lowerback 11.2478 1.0354 -0.914632
upperback 8.93559 0.820638 -0.801174
thorax 3.03511 0.185124 -0.398983
lowerneck -9.16782 5.52744 10.0244
upperneck 0.666213 6.56372 -8.50466
head 2.29411 3.06532 -3.85714
rclavicle 9.14409e-015 -1.59028e-015
rhumerus -6.1495 41.5916 -95.0489
rradius 132.536
rwrist -1.41994
rhand -14.0833 24.8996
rfingers 7.12502
rthumb 12.0488 -4.73351
lclavicle 9.14409e-015 -1.59028e-015
lhumerus 2.24445 -27.8744 88.3552
lradius 141.721
lwrist 4.24079
lhand 1.45829 -18.5398
lfingers 7.12502
lthumb 26.9864 9.55266
rfemur -8.03746 7.63126 21.2563
rtibia 26.565
rfoot -22.4858 -28.9272
rtoes -23.477
lfemur -9.35001 -9.21423 -12.9302
ltibia 30.501
lfoot -19.6727 19.7213
ltoes -13.6773
467
root 22.2385 15.3421 0.605361 143.061 -85.3609 -144.738
lowerback 11.4579 1.0399 -0.997487
upperback 9.06963 0.800707 -0.821028
thorax 3.06351 0.164105 -0.373848
lowerneck -9.13657 5.52582 10.0717
upperneck 0.661096 6.56004 -8.52103
head 2.2894 3.06407 -3.87067
rclavicle 5.96354e-016 -1.90833e-014
rhumerus -5.75328 41.7856 -95.0025
rradius 132.473
rwrist -1.17524
rhand -13.634 24.9165
rfingers 7.12502
rthumb 12.482 -4.69072
lclavicle 5.96354e-016 -1.90833e-014
lhumerus 2.77751 -27.8689 87.8249
lradius 141.535
lwrist 4.31411
lhand 0.884717 -21.504
lfingers 7.12502
lthumb 26.4375 6.67228
rfemur -8.16552 7.66235 21.3013
rtibia 26.9173
rfoot -22.3894 -28.7345
rtoes -23.5287
lfemur -9.34714 -8.74545 -12.866
ltibia 30.7918
lfoot -19.7683 19.432
ltoes -13.5123
468
root 22.2429 15.3335 0.613648 143.956 -85.1171 -145.782
lowerback 11.6628 1.04706 -1.01796
upperback 9.18246 0.790646 -0.836536
thorax 3.07328 0.151717 -0.379886
lowerneck -8.98336 5.53714 10.2054
upperneck 0.504321 6.57359 -8.67218
head 2.22976 3.06995 -3.94264
rclavicle -1.31198e-014 -3.97569e-015
rhumerus -5.48805 41.8936 -95.0151
rradius 132.396
rwrist -1.16732
rhand -13.195 24.7494
rfingers 7.12502
rthumb 12.9052 -4.83155
lclavicle -1.31198e-014 -3.97569e-015
lhumerus 3.09774 -27.9465 87.3522
lradius 141.563
lwrist 4.29974
lhand 1.11001 -20.606
lfingers 7.12502
lthumb 26.6531 7.53761
rfemur -8.18589 7.76077 21.3699
rtibia 27.1293
rfoot -22.4489 -28.5742
rtoes -23.293
lfemur -9.30491 -8.38249 -12.8006
ltibia 31.0516
lfoot -19.9093 19.2398
ltoes -13.324
469
root 22.245 15.3284 0.623911 144.763 -85.0099 -146.656
lowerback 11.8844 1.01258 -0.976921
upperback 9.2097 0.737419 -0.912773
thorax 2.98473 0.126142 -0.479657
lowerneck -9.15904 5.73217 10.8116
upperneck 0.72329 6.7873 -9.21739
head 2.38546 3.16043 -4.18586
rclavicle -1.59028e-015 1.51076e-014
rhumerus -5.55887 41.8975 -95.2832
rradius 132.251
rwrist -1.05591
rhand -13.0733 24.5175
rfingers 7.12502
rthumb 13.0226 -5.056
lclavicle -1.59028e-015 1.51076e-014
lhumerus 3.07385 -28.0249 87.0146
lradius 141.524
lwrist 4.12181
lhand 1.72699 -17.4615
lfingers 7.12502
lthumb 27.2435 10.591
rfemur -8.17348 7.76755 21.3279
rtibia 27.182
rfoot -22.5931 -28.3897
rtoes -22.7028
lfemur -9.33202 -8.26567 -12.851
ltibia 31.2819
lfoot -20.022 19.2489
ltoes -13.2497
470
root 22.2472 15.3276 0.63452 144.156 -84.7394 -146.02
lowerback 12.1355 0.930288 -0.752515
upperback 9.16092 0.641546 -0.897633
thorax 2.80004 0.0882023 -0.582924
lowerneck -9.00837 5.55225 10.5036
upperneck 0.859618 6.58768 -8.84567
head 2.35747 3.07575 -4.03774
rclavicle -2.3059e-014 -1.11319e-014
rhumerus -5.8484 41.9004 -95.6791
rradius 131.994
rwrist -0.852148
rhand -13.0383 24.5225
rfingers 7.12502
rthumb 13.0562 -5.04887
lclavicle -2.3059e-014 -1.11319e-014
lhumerus 2.9255 -27.9974 86.7684
lradius 141.375
lwrist 3.85835
lhand 1.6765 -18.524
lfingers 7.12502
lthumb 27.1952 9.53598
rfemur -8.22965 7.86704 21.502
rtibia 27.1668
rfoot -22.5814 -28.2917
rtoes -22.4225
lfemur -9.40221 -8.19133 -12.6781
ltibia 31.4426
lfoot -20.1018 19.388
ltoes -13.2424
471
root 22.2518 15.3304 0.644176 143.949 -84.298 -145.661
lowerback 11.832 0.884848 -0.690599
upperback 9.39379 0.575102 -0.6678
thorax 3.20976 0.0433137 -0.370998
lowerneck -9.05141 5.61777 10.443
upperneck 0.716102 6.68158 -9.13581
head 2.34063 3.11119 -4.11158
rclavicle 1.07344e-014 1.74931e-014
rhumerus -5.41854 42.0638 -95.2804
rradius 131.755
rwrist -0.917738
rhand -12.9626 24.6014
rfingers 7.12502
rthumb 13.1292 -4.96529
lclavicle 1.07344e-014 1.74931e-014
lhumerus 3.31146 -27.8893 86.5202
lradius 141.225
lwrist 3.28384
lhand 1.14629 -18.2681
lfingers 7.12502
lthumb 26.6879 9.87025
rfemur -8.43669 8.0814 21.7578
rtibia 27.1035
rfoot -22.3456 -28.24
rtoes -22.6307
lfemur -9.5488 -7.99873 -12.3773
ltibia 31.5227
lfoot -20.174 19.5291
ltoes -13.036
472
root 22.2562 15.3368 0.653821 147.328 -84.1351 -148.815
lowerback 11.8728 0.849921 -0.785424
upperback 9.30222 0.525329 -0.768805
thorax 3.08983 0.0190723 -0.418517
lowerneck -9.0203 5.62815 10.5802
upperneck 0.906441 6.70189 -9.27088
head 2.40439 3.12028 -4.17216
rclavicle -1.59028e-014 -2.38542e-015
rhumerus -5.75635 42.0875 -95.5961
rradius 131.644
rwrist -0.900243
rhand -13.0305 24.7079
rfingers 7.12502
rthumb 13.0638 -4.863
lclavicle -1.59028e-014 -2.38542e-015
lhumerus 3.29622 -27.5371 86.3304
lradius 141.102
lwrist 4.00921
lhand 2.25325 -19.1609
lfingers 7.12502
lthumb 27.7468 8.81152
rfemur -8.72022 8.16527 21.4802
rtibia 26.9898
rfoot -22.0174 -28.138
rtoes -23.2046
lfemur -9.74026 -7.83694 -12.5882
ltibia 31.5301
lfoot -20.227 19.6995
ltoes -12.905
